<?xml version="1.0" ?><svg id="Layer_1" style="enable-background:new 0 0 512 512;" version="1.1" viewBox="0 0 512 512" xml:space="preserve" xmlns="http://www.w3.org/2000/svg" xmlns:xlink="http://www.w3.org/1999/xlink"><style type="text/css">
	.st0{fill:#E1F9EC;}
	.st1{fill:#55A47E;}
	.st2{fill:#377753;}
	.st3{fill:#FFFFFF;}
</style><g id="XMLID_178_"><g id="XMLID_118_"><polygon class="st0" id="XMLID_122_" points="330.7,6 87.9,6 87.9,506 449.2,506 449.2,122.8   "/><polygon class="st1" id="XMLID_121_" points="330.7,6 449.2,122.8 330.7,122.8   "/><rect class="st1" height="156.1" id="XMLID_120_" width="329" x="62.8" y="298.8"/><polygon class="st2" id="XMLID_119_" points="62.8,454.9 87.9,476.1 87.9,454.9   "/></g><g id="XMLID_3116_"><path class="st3" d="M138.3,374.3h0.3l7.8-18.2H168l-17.9,30.5l18.5,31.1h-21.6l-8.2-18.7h-0.3l-8.2,18.7h-21.6    l18.5-31.1l-17.9-30.5h21.5L138.3,374.3z" id="XMLID_3024_"/><path class="st3" d="M202.2,417.7h-19.3v-88.8h19.3V417.7z" id="XMLID_3026_"/><path class="st3" d="M254.2,400.4c0-1.5-0.9-2.9-2.6-4.1c-1.7-1.2-4.9-2.3-9.4-3.2c-7.2-1.4-12.6-3.6-16.2-6.5    c-3.6-2.9-5.5-7-5.5-12.2c0-5.4,2.3-10,6.8-13.8c4.6-3.8,10.7-5.7,18.5-5.7c8.2,0,14.7,1.8,19.6,5.5c4.9,3.7,7.2,8.4,6.9,14.2    l-0.1,0.3h-18.7c0-2.4-0.6-4.3-1.8-5.5c-1.2-1.3-3.2-1.9-6-1.9c-2,0-3.7,0.6-5.1,1.7c-1.4,1.1-2,2.5-2,4.2c0,1.6,0.8,3,2.4,4.2    c1.6,1.1,4.8,2.2,9.5,3.1c7.6,1.5,13.1,3.7,16.7,6.6c3.6,2.9,5.4,7.1,5.4,12.5c0,5.5-2.5,10.1-7.4,13.7    c-4.9,3.6-11.4,5.4-19.5,5.4c-8.4,0-15-2.1-19.9-6.4s-7.2-9-7-14.2l0.1-0.3h17.4c0.1,2.9,1,5,2.6,6.3c1.7,1.3,4.1,1.9,7.2,1.9    c2.6,0,4.5-0.5,5.9-1.5C253.6,403.7,254.2,402.3,254.2,400.4z" id="XMLID_3028_"/><path class="st3" d="M314.3,374.3h0.3l7.8-18.2H344l-17.9,30.5l18.5,31.1h-21.6l-8.2-18.7h-0.3l-8.2,18.7h-21.6    l18.5-31.1l-17.9-30.5h21.5L314.3,374.3z" id="XMLID_3030_"/></g></g></svg>